{"title":"Paloma Faith - The Crazy Ones (from Miss You Already) 2015","uid":12497220,"size":92562128,"categoryP":"video","categoryS":"music_videos","magnet":"?xt=urn:btih:493b02583ff240aec41cb53342ece3b8a4d9754d&amp;dn=Paloma+Faith+-+The+Crazy+Ones+%28from+Miss+You+Already%29+2015&amp;tr=udp%3A%2F%2Ftracker.leechers-paradise.org%3A6969&amp;tr=udp%3A%2F%2Fzer0day.ch%3A1337&amp;tr=udp%3A%2F%2Fopen.demonii.com%3A1337&amp;tr=udp%3A%2F%2Ftracker.coppersurfer.tk%3A6969&amp;tr=udp%3A%2F%2Fexodus.desync.com%3A6969","seeders":1,"leechers":0,"uploader":"MeRaDil","files":1,"time":1443298805,"description":"PALOMA FAITH - THE CRAZY ONES\r\n\r\n\r\nfrom the movie  Miss You Already\r\n \nhttp://gifyu.com/images/PalomaFaith-2.png\r\n \nhttp://gifyu.com/images/PalomaFaith-3.png\r\n\r\n\r\nMEDIA INFO\r\nGeneral\r\nPaloma Faith - The Crazy Ones\r\nFormat                                   : MPEG-4\r\nFormat profile                           : Base Media\r\nCodec ID                                 : isom\r\nFile size                                : 88.3 MiB\r\nDuration                                 : 4mn 10s\r\nOverall bit rate                         : 2 958 Kbps\r\nMusicVid name                            : The Crazy Ones\r\nAlbum                                    : OST.Miss You Already\r\nPerformer                                : Paloma Faith\r\nGenre                                    : Soundtrack\r\nContentType                              : Music Video\r\nRecorded date                            : 2015\r\nComment                                  : from the movie  Miss You Already\r\nRating                                   : ***\r\nMake                                     : MeRaDil\r\nRelease                                  : UK . september 25 . 2015\r\n \nhttps://thepiratebay.mn/user/MeRaDil\r\n\r\nVideo\r\nFormat                                   : AVC\r\nFormat/Info                              : Advanced Video Codec\r\nFormat profile                           :   \r\nFormat settings, CABAC                   : Yes\r\nFormat settings, ReFrames                : 2 frames\r\nCodec ID                                 : avc1\r\nCodec ID/Info                            : Advanced Video Coding\r\nDuration                                 : 4mn 10s\r\nBit rate                                 : 2 681 Kbps\r\nWidth                                    : 1 920 pixels\r\nHeight                                   : 1 080 pixels\r\nDisplay aspect ratio                     : 16:9\r\nFrame rate mode                          : Constant\r\nFrame rate                               : 25.000 fps\r\nColor space                              : YUV\r\nChroma subsampling                       : 4:2:0\r\nBit depth                                : 8 bits\r\nScan type                                : Progressive\r\nBits/(Pixel*Frame)                       : 0.052\r\nStream size                              : 80.0 MiB (91%)\r\n\r\nAudio\r\nFormat                                   : AAC\r\nFormat/Info                              : Advanced Audio Codec\r\nFormat profile                           : LC\r\nCodec ID                                 : 40\r\nDuration                                 : 4mn 10s\r\nBit rate mode                            : Constant\r\nBit rate                                 : 256 Kbps\r\nChannel(s)                               : 2 channels\r\nChannel positions                        : Front: L R\r\nSampling rate                            : 44.1 KHz\r\nCompression mode                         : Lossy\r\nStream size                              : 7.64 MiB (9%)\r\n\r\nPaloma Faith * Miss You Already * Soundtrack * Promo","torrent":{"xt":"urn:btih:493b02583ff240aec41cb53342ece3b8a4d9754d","amp;dn":"Paloma+Faith+-+The+Crazy+Ones+%28from+Miss+You+Already%29+2015","amp;tr":["udp%3A%2F%2Ftracker.leechers-paradise.org%3A6969","udp%3A%2F%2Fzer0day.ch%3A1337","udp%3A%2F%2Fopen.demonii.com%3A1337","udp%3A%2F%2Ftracker.coppersurfer.tk%3A6969","udp%3A%2F%2Fexodus.desync.com%3A6969"],"infoHash":"493b02583ff240aec41cb53342ece3b8a4d9754d","infoHashBuffer":{"type":"Buffer","data":[73,59,2,88,63,242,64,174,196,28,181,51,66,236,227,184,164,217,117,77]},"announce":[],"urlList":[]}}